# xmcd CD database file
# Copyright (C) 1993-1996 Ti Kan
#
# Track frame offsets:
#	187
#	12792
#	28710
#	43885
#	60360
#	73122
#	84485
#	97450
#	110332
#	119772
#	131487
#	143780
#	155000
#	169112
#	181187
#	191872
#	204485
#	217697
#	230657
#	241842
#	253780
#	264592
#	275322
#
# Disc length: 3848 seconds
#
# Revision: 3
# Processed by: cddbd v1.4PL0 Copyright (c) Steve Scherf et al.
# Submitted via: Gronk 1.4
#
DISCID=520f0617
DTITLE=Jimmy Reed - Jimmy Reed at Carnegie Hall - The Best Of Jimmy Reed
DYEAR=1900
DGENRE=blues
TTITLE0=Bright Lights, Big City
TTITLE1=I'm Mr. Luck
TTITLE2=Baby What's Wrong
TTITLE3=Found Joy
TTITLE4=Kind of Lonesome
TTITLE5=Aw Shucks Hush Your Mouth
TTITLE6=Tell Me You Love Me
TTITLE7=Blue Carnegie
TTITLE8=I'm a Love You
TTITLE9=Hold Me Close
TTITLE10=Blue Blue Water
TTITLE11=Baby What You Want Me To Do
TTITLE12=You Dont Have To Go
TTITLE13=Hush Hush
TTITLE14=Found Love
TTITLE15=Honest I Do
TTITLE16=You Got Me Dizzy
TTITLE17=Big Boss Man
TTITLE18=Take Out Some Insurance
TTITLE19=Boogie In The Dark
TTITLE20=Going To New York
TTITLE21=Ain't That Lovin' You Baby
TTITLE22=The Sun is Shining
EXTD=Mobile Fidelity Gold Disc\nConatins 2 albums
EXTT0=
EXTT1=
EXTT2=
EXTT3=
EXTT4=
EXTT5=
EXTT6=
EXTT7=
EXTT8=
EXTT9=
EXTT10=
EXTT11=
EXTT12=
EXTT13=
EXTT14=
EXTT15=
EXTT16=
EXTT17=
EXTT18=
EXTT19=
EXTT20=
EXTT21=
EXTT22=
PLAYORDER=
